# xmcd
#
# Track frame offsets: 
#        150
#        13762
#        26427
#        36736
#        58181
#        74632
#        90998
#        99792
#        110356
#        121735
#        137486
#        151389
#
# Disc length: 2212 seconds
#
# Revision: 0
# Processed by: cddbd v1.5.2PL0 Copyright (c) Steve Scherf et al.
# Submitted via: ExactAudioCopy v0.95b4
#
DISCID=9808a20c
DTITLE=The Bent Scepters - Hellevator Music
DYEAR=1900
DGENRE=Rock
TTITLE0=High Flying Bird
TTITLE1=Mindrocker
TTITLE2=Stand In Line
TTITLE3=Trouble Everyday
TTITLE4=Above The Law
TTITLE5=Getting By On Me
TTITLE6=Jackpot....Busted
TTITLE7=All Around The World
TTITLE8=Instant Peter Sellers
TTITLE9=Kingpin
TTITLE10=My Toyota
TTITLE11=Little Olive
EXTD=
EXTT0=
EXTT1=
EXTT2=
EXTT3=
EXTT4=
EXTT5=
EXTT6=
EXTT7=
EXTT8=
EXTT9=
EXTT10=
EXTT11=
PLAYORDER=
